<?xml version="1.0" encoding="UTF-8" standalone="no"?>
<!-- Created with Inkscape (http://www.inkscape.org/) -->

<svg
   xmlns:dc="http://purl.org/dc/elements/1.1/"
   xmlns:cc="http://creativecommons.org/ns#"
   xmlns:rdf="http://www.w3.org/1999/02/22-rdf-syntax-ns#"
   xmlns:svg="http://www.w3.org/2000/svg"
   xmlns="http://www.w3.org/2000/svg"
   xmlns:sodipodi="http://sodipodi.sourceforge.net/DTD/sodipodi-0.dtd"
   xmlns:inkscape="http://www.inkscape.org/namespaces/inkscape"
   width="56.700321mm"
   height="84.4198mm"
   viewBox="0 0 56.700321 84.4198"
   version="1.1"
   id="svg8"
   inkscape:version="0.92.4 (5da689c313, 2019-01-14)"
   sodipodi:docname="dibujo.svg">
  <defs
     id="defs2" />
  <sodipodi:namedview
     id="base"
     pagecolor="#ffffff"
     bordercolor="#666666"
     borderopacity="1.0"
     inkscape:pageopacity="0.0"
     inkscape:pageshadow="2"
     inkscape:zoom="0.35"
     inkscape:cx="-566.61688"
     inkscape:cy="-136.50257"
     inkscape:document-units="mm"
     inkscape:current-layer="layer1"
     showgrid="false"
     fit-margin-top="0"
     fit-margin-left="0"
     fit-margin-right="0"
     fit-margin-bottom="0"
     inkscape:window-width="1366"
     inkscape:window-height="705"
     inkscape:window-x="-8"
     inkscape:window-y="-8"
     inkscape:window-maximized="1" />
  <metadata
     id="metadata5">
    <rdf:RDF>
      <cc:Work
         rdf:about="">
        <dc:format>image/svg+xml</dc:format>
        <dc:type
           rdf:resource="http://purl.org/dc/dcmitype/StillImage" />
        <dc:title></dc:title>
      </cc:Work>
    </rdf:RDF>
  </metadata>
  <g
     inkscape:label="Capa 1"
     inkscape:groupmode="layer"
     id="layer1"
     transform="translate(-80.633577,-7.849205)">
    <path
       style="fill:#000000;stroke-width:0.36057568"
       d="M 97.249901,75.067076 85.876598,72.271679 83.503712,48.872106 C 82.198624,36.002343 81.018944,24.599949 80.882202,23.533454 l -0.248625,-1.939082 h 28.350153 28.35017 l -0.22717,1.939082 c -0.12493,1.066495 -1.29334,12.467177 -2.59645,25.334847 l -2.36929,23.395766 -11.56608,2.818427 c -6.36136,1.550136 -11.65287,2.809776 -11.75889,2.799201 -0.10602,-0.01058 -5.31078,-1.277153 -11.566119,-2.814619 z m 18.869989,-9.499127 c 3.5105,-0.853977 6.65307,-1.678401 6.98351,-1.832054 0.48269,-0.224441 0.76798,-1.957909 1.45111,-8.817183 0.46766,-4.695798 0.84789,-8.955142 0.84495,-9.465204 l -0.005,-0.927387 H 112.53433 99.674571 l -0.245776,-2.276314 c -0.13518,-1.251971 -0.247012,-2.696571 -0.248519,-3.210218 l -0.0028,-0.933906 13.464814,0.228908 13.46478,0.22891 0.20115,-1.149777 c 0.11063,-0.632377 0.29452,-2.09824 0.40863,-3.257475 l 0.20748,-2.107696 H 109.03956 91.154703 l 0.161025,1.264618 c 0.315119,2.47479 1.693281,16.255973 1.693281,16.932266 0,0.678285 0.175655,0.688084 12.331261,0.688084 h 12.3313 l -0.23235,2.107698 c -0.1278,1.159233 -0.342,2.934525 -0.47601,3.945093 l -0.24366,1.837397 -3.93363,0.914546 -3.93362,0.914544 -3.8546,-0.888821 -3.85459,-0.88882 -0.26148,-2.621893 -0.26147,-2.621891 h -3.662477 -3.662476 l 0.232056,1.601851 c 0.127631,0.881017 0.347218,2.992289 0.487972,4.691714 0.14076,1.699428 0.375201,3.258689 0.520993,3.465027 0.288938,0.408938 12.727092,3.62982 14.258442,3.692248 0.51838,0.02115 3.81473,-0.660286 7.32522,-1.514265 z M 86.069366,12.826352 V 8.1051102 h 1.734911 1.734911 c 0,1.0116944 0,2.0233888 0,3.0350828 1.156607,0 2.313214,0 3.469821,0 V 9.6226513 8.1051102 c 1.156607,0 2.313215,0 3.469822,0 v 4.7212418 4.721241 h -1.713788 -1.713787 l -0.117504,-1.60185 -0.117504,-1.601849 -1.638526,-0.1037 -1.638527,-0.103699 v 1.705548 1.705548 h -1.734911 -1.73491 z m 15.035894,1.517542 V 11.140193 H 99.563115 C 97.81586,11.270962 98.020973,11.035449 98.020973,9.6226513 97.678236,6.9280738 100.17427,8.1051102 103.03295,8.1051102 h 5.012 v 1.5175411 1.5175417 h -1.73493 -1.73492 v 3.203701 3.203699 h -1.73492 c -2.7615,0.26451 -1.73492,-1.151871 -1.73492,-3.203699 z m 8.48184,-1.517542 c 0.46243,-3.2169187 -1.84415,-4.7212418 1.83477,-4.7212418 1.79088,0 1.86264,0.04049 3.00008,1.6927441 l 1.16531,1.6927457 1.14445,-1.6860527 c 1.11569,-1.6436731 1.19048,-1.6862211 2.97575,-1.6927451 l 1.83129,-0.0066 v 4.7212418 4.721241 h -1.71729 -1.7173 l -0.11399,-2.263948 -0.114,-2.263947 -1.16681,1.572674 -1.1668,1.572674 -1.14642,-1.58504 c -1.98641,-3.970379 -1.31578,1.796698 -1.37442,2.967587 h -1.7173 c -3.10895,0.329937 -1.71731,-2.239899 -1.71732,-4.721305 z m 13.87933,0 c 0.46819,-3.0640157 -1.80729,-4.7212418 1.73491,-4.7212418 2.76149,-0.2645097 1.73491,1.1518724 1.73491,3.2036998 v 3.203699 c 1.67066,0 3.34131,0 5.01197,0 v 1.517542 1.517542 h -4.24089 c -5.85376,0.106466 -4.2409,0.389637 -4.2409,-4.721241 z"
       id="path826"
       inkscape:connector-curvature="0"
       sodipodi:nodetypes="scssccccscscsscsccccccccccccccsssccccccccccccscccsccccccccccccccccccccccccccccccccccccccscsccccccccccccccccccccccc" />
    <text
       xml:space="preserve"
       style="font-style:normal;font-variant:normal;font-weight:bold;font-stretch:normal;font-size:19.23070335px;line-height:1.25;font-family:sans-serif;-inkscape-font-specification:'sans-serif, Bold';font-variant-ligatures:normal;font-variant-caps:normal;font-variant-numeric:normal;font-feature-settings:normal;text-align:start;letter-spacing:0px;word-spacing:0px;writing-mode:lr-tb;text-anchor:start;fill:#000000;fill-opacity:1;stroke:none;stroke-width:0.66875511"
       x="82.20665"
       y="96.496613"
       id="text830"
       transform="matrix(1.018342,-0.03020123,0,0.98198837,0,0)"><tspan
         sodipodi:role="line"
         id="tspan828"
         x="82.20665"
         y="96.496613"
         style="font-style:normal;font-variant:normal;font-weight:bold;font-stretch:normal;font-size:19.23070335px;font-family:sans-serif;-inkscape-font-specification:'sans-serif, Bold';font-variant-ligatures:normal;font-variant-caps:normal;font-variant-numeric:normal;font-feature-settings:normal;text-align:start;writing-mode:lr-tb;text-anchor:start;stroke-width:0.66875511">A   A</tspan></text>
  </g>
</svg>
