<?xml version="1.0" encoding="UTF-8" standalone="no"?>
<svg
   xmlns:dc="http://purl.org/dc/elements/1.1/"
   xmlns:cc="http://creativecommons.org/ns#"
   xmlns:rdf="http://www.w3.org/1999/02/22-rdf-syntax-ns#"
   xmlns:svg="http://www.w3.org/2000/svg"
   xmlns="http://www.w3.org/2000/svg"
   xmlns:sodipodi="http://sodipodi.sourceforge.net/DTD/sodipodi-0.dtd"
   xmlns:inkscape="http://www.inkscape.org/namespaces/inkscape"
   id="svg8"
   version="1.1"
   viewBox="0 0 81.275688 125.10368"
   height="125.10368mm"
   width="81.275688mm"
   sodipodi:docname="logo.svg"
   inkscape:version="0.92.4 (5da689c313, 2019-01-14)">
  <sodipodi:namedview
     pagecolor="#ffffff"
     bordercolor="#666666"
     borderopacity="1"
     objecttolerance="10"
     gridtolerance="10"
     guidetolerance="10"
     inkscape:pageopacity="0"
     inkscape:pageshadow="2"
     inkscape:window-width="1366"
     inkscape:window-height="705"
     id="namedview16"
     showgrid="false"
     inkscape:zoom="0.49911933"
     inkscape:cx="153.59185"
     inkscape:cy="208.18721"
     inkscape:window-x="-8"
     inkscape:window-y="-8"
     inkscape:window-maximized="1"
     inkscape:current-layer="svg8" />
  <defs
     id="defs2">
    <filter
       height="1.0954449"
       y="-0.047722425"
       width="1.0320622"
       x="-0.016031081"
       id="filter2301"
       style="color-interpolation-filters:sRGB">
      <feGaussianBlur
         id="feGaussianBlur2303"
         stdDeviation="0.39388119" />
    </filter>
  </defs>
  <metadata
     id="metadata5">
    <rdf:RDF>
      <cc:Work
         rdf:about="">
        <dc:format>image/svg+xml</dc:format>
        <dc:type
           rdf:resource="http://purl.org/dc/dcmitype/StillImage" />
        <dc:title />
      </cc:Work>
    </rdf:RDF>
  </metadata>
  <g
     transform="translate(-71.966646,-26.899792)"
     id="layer1">
    <path
       id="path850"
       d="M 95.806479,147.48922 79.509771,143.00591 76.109683,105.47725 C 74.239632,84.836483 72.54928,66.549114 72.353343,64.83865 L 71.99709,61.728716 h 40.62263 40.62261 l -0.32549,3.109934 c -0.17914,1.710464 -1.85322,19.995087 -3.72043,40.63249 l -3.39495,37.52257 -16.57291,4.52025 c -9.11512,2.48612 -16.69723,4.50637 -16.84914,4.4894 -0.15193,-0.0164 -7.60974,-2.04831 -16.572931,-4.51414 z M 122.845,132.25435 c 5.03014,-1.36963 9.5331,-2.69186 10.00659,-2.93828 0.69165,-0.35997 1.10042,-3.14013 2.07927,-14.14117 0.67012,-7.5312 1.21494,-14.36242 1.21072,-15.180464 l -0.008,-1.487361 H 117.70738 99.280832 L 98.92866,94.856284 c -0.193696,-2.007937 -0.353941,-4.324813 -0.356099,-5.14861 l -0.004,-1.497816 19.293519,0.367128 19.29352,0.36713 0.28824,-1.844033 c 0.15847,-1.014218 0.42201,-3.365197 0.58551,-5.224398 l 0.29733,-3.380363 H 112.69972 87.072722 l 0.230731,2.028218 c 0.45153,3.969115 2.426289,26.07163 2.426289,27.15628 0,1.08785 0.251693,1.10356 17.669318,1.10356 h 17.66932 l -0.33294,3.38036 c -0.18311,1.85921 -0.49005,4.70645 -0.68208,6.32722 l -0.34912,2.94685 -5.63642,1.46677 -5.63644,1.46675 -5.52318,-1.4255 -5.52319,-1.42551 -0.37466,-4.20504 -0.37466,-4.20504 h -5.247929 -5.24793 l 0.33251,2.56909 c 0.182882,1.41299 0.497526,4.79908 0.699213,7.52465 0.201693,2.72558 0.537621,5.22634 0.746524,5.55728 0.414018,0.65586 18.236492,5.82157 20.430732,5.92169 0.74278,0.0339 5.46606,-1.05898 10.49619,-2.4286 z"
       style="fill:#000000;stroke-width:0.54661387" />
    <g
       style="fill:#ff0000;fill-opacity:1;stroke-width:0.1;stroke-miterlimit:4;stroke-dasharray:none"
       id="g2308">
      <text
         xml:space="preserve"
         style="font-style:normal;font-variant:normal;font-weight:normal;font-stretch:normal;font-size:9.8777771px;line-height:1.25;font-family:sans-serif;-inkscape-font-specification:'sans-serif, Normal';font-variant-ligatures:normal;font-variant-caps:normal;font-variant-numeric:normal;font-feature-settings:normal;text-align:start;letter-spacing:0px;word-spacing:0px;writing-mode:lr-tb;text-anchor:start;opacity:1;fill:#ff0000;fill-opacity:1;stroke:none;stroke-width:0.1;stroke-miterlimit:4;stroke-dasharray:none;filter:url(#filter2301)"
         x="81.945244"
         y="48.216087"
         id="text855"><tspan
           id="tspan861"
           x="81.945244"
           y="48.216087">   </tspan></text>
    </g>
  </g>
  <g
     transform="translate(-71.966646,-26.899792)"
     id="layer2" />
  <text
     xml:space="preserve"
     style="font-style:normal;font-variant:normal;font-weight:bold;font-stretch:normal;font-size:12.41596699px;line-height:1;font-family:'Times New Roman';-inkscape-font-specification:'Times New Roman, Bold';font-variant-ligatures:normal;font-variant-caps:normal;font-variant-numeric:normal;font-feature-settings:normal;text-align:center;letter-spacing:0px;word-spacing:0px;writing-mode:lr-tb;text-anchor:middle;fill:#000000;fill-opacity:1;stroke:none;stroke-width:0.2909992"
     x="44.362366"
     y="18.027321"
     id="text4528"
     transform="scale(0.90922355,1.0998395)"><tspan
       sodipodi:role="line"
       id="tspan4526"
       x="45.91436"
       y="18.027321"
       style="font-style:normal;font-variant:normal;font-weight:bold;font-stretch:normal;line-height:1;font-family:'Times New Roman';-inkscape-font-specification:'Times New Roman, Bold';text-align:center;text-anchor:middle;stroke-width:0.2909992">ALVARO </tspan><tspan
       sodipodi:role="line"
       x="44.362366"
       y="30.443287"
       style="font-style:normal;font-variant:normal;font-weight:bold;font-stretch:normal;line-height:1;font-family:'Times New Roman';-inkscape-font-specification:'Times New Roman, Bold';text-align:center;text-anchor:middle;stroke-width:0.2909992"
       id="tspan4532">ALCÁNTARA</tspan><tspan
       sodipodi:role="line"
       x="44.362366"
       y="42.859253"
       style="font-style:normal;font-variant:normal;font-weight:bold;font-stretch:normal;line-height:1;font-family:'Times New Roman';-inkscape-font-specification:'Times New Roman, Bold';text-align:center;text-anchor:middle;stroke-width:0.2909992"
       id="tspan4530" /></text>
</svg>
